<svg width="13" height="21" viewBox="0 0 13 21" fill="none" xmlns="http://www.w3.org/2000/svg">
<path d="M0.846176 4.05126C0.846176 3.20528 1.13996 2.39397 1.66292 1.79577C2.18585 1.19758 2.89512 0.861519 3.63465 0.861519H6.42312V7.24102H3.63465C2.89512 7.24102 2.18585 6.90495 1.66292 6.30674C1.13996 5.70856 0.846176 4.89725 0.846176 4.05126Z" stroke="#FF3A5E" stroke-linecap="round" stroke-linejoin="round"/>
<path d="M6.42309 0.861519H9.21156C9.57772 0.861519 9.94035 0.944023 10.2786 1.10432C10.617 1.26462 10.9244 1.49958 11.1833 1.79577C11.4422 2.09197 11.6476 2.4436 11.7878 2.8306C11.9279 3.2176 12 3.63237 12 4.05126C12 4.47015 11.9279 4.88493 11.7878 5.27191C11.6476 5.65893 11.4422 6.01056 11.1833 6.30674C10.9244 6.60295 10.617 6.83789 10.2786 6.9982C9.94035 7.15851 9.57772 7.24102 9.21156 7.24102H6.42309V0.861519Z" stroke="#FF3A5E" stroke-linecap="round" stroke-linejoin="round"/>
<path d="M6.42309 10.4308C6.42309 10.0119 6.49521 9.5971 6.63536 9.21009C6.77548 8.8231 6.98088 8.47147 7.2398 8.17526C7.49875 7.87908 7.80615 7.64411 8.14444 7.48383C8.48277 7.32352 8.84536 7.24101 9.21156 7.24101C9.57772 7.24101 9.94035 7.32352 10.2786 7.48383C10.617 7.64411 10.9244 7.87908 11.1833 8.17526C11.4422 8.47147 11.6476 8.8231 11.7878 9.21009C11.9279 9.5971 12 10.0119 12 10.4308C12 10.8496 11.9279 11.2644 11.7878 11.6514C11.6476 12.0384 11.4422 12.3901 11.1833 12.6862C10.9244 12.9825 10.617 13.2174 10.2786 13.3777C9.94035 13.538 9.57772 13.6205 9.21156 13.6205C8.84536 13.6205 8.48277 13.538 8.14444 13.3777C7.80615 13.2174 7.49875 12.9825 7.2398 12.6862C6.98088 12.3901 6.77548 12.0384 6.63536 11.6514C6.49521 11.2644 6.42309 10.8496 6.42309 10.4308Z" stroke="#FF3A5E" stroke-linecap="round" stroke-linejoin="round"/>
<path d="M0.846176 16.8102C0.846176 15.9643 1.13996 15.1529 1.66292 14.5548C2.18585 13.9566 2.89512 13.6205 3.63465 13.6205H6.42312V16.8102C6.42312 17.6562 6.12933 18.4675 5.6064 19.0658C5.08345 19.6639 4.3742 20 3.63465 20C2.89512 20 2.18585 19.6639 1.66292 19.0658C1.13996 18.4675 0.846176 17.6562 0.846176 16.8102Z" stroke="#FF3A5E" stroke-linecap="round" stroke-linejoin="round"/>
<path d="M0.846176 10.4308C0.846176 9.58478 1.13996 8.77347 1.66292 8.17526C2.18585 7.57708 2.89512 7.24101 3.63465 7.24101H6.42312V13.6205H3.63465C2.89512 13.6205 2.18585 13.2844 1.66292 12.6862C1.13996 12.0881 0.846176 11.2767 0.846176 10.4308Z" stroke="#FF3A5E" stroke-linecap="round" stroke-linejoin="round"/>
</svg>
