<svg width="55" height="55" viewBox="0 0 55 55" fill="none" xmlns="http://www.w3.org/2000/svg">
<mask id="mask0_41_11" style="mask-type:luminance" maskUnits="userSpaceOnUse" x="0" y="0" width="55" height="55">
<path d="M0 0H55V55H0V0Z" fill="white"/>
</mask>
<g mask="url(#mask0_41_11)">
<path d="M53.9638 25.0512L29.9495 1.03868C29.6208 0.709509 29.2304 0.44837 28.8006 0.270199C28.3709 0.0920285 27.9103 0.000320435 27.4451 0.000320435C26.9799 0.000320435 26.5193 0.0920285 26.0895 0.270199C25.6598 0.44837 25.2694 0.709509 24.9407 1.03868L19.9535 6.02589L26.2779 12.3503C27.0214 12.0978 27.8208 12.0583 28.5856 12.2365C29.3504 12.4146 30.0501 12.8032 30.6055 13.3583C31.1639 13.9175 31.5539 14.6223 31.7309 15.3925C31.908 16.1627 31.865 16.9671 31.6069 17.714L37.702 23.8097C38.4488 23.5502 39.2536 23.5065 40.0242 23.6835C40.7947 23.8605 41.4997 24.2511 42.0584 24.8105C42.4497 25.2018 42.7602 25.6664 42.972 26.1777C43.1838 26.689 43.2929 27.237 43.2929 27.7905C43.2929 28.3439 43.1838 28.8919 42.972 29.4032C42.7602 29.9145 42.4497 30.3791 42.0584 30.7704C41.2676 31.5608 40.1953 32.0049 39.0772 32.0049C37.9592 32.0049 36.8869 31.5608 36.0961 30.7704C35.5075 30.1822 35.1063 29.4328 34.9431 28.6168C34.7799 27.8008 34.862 26.9548 35.1791 26.1854L29.4928 20.5009V35.4631C30.093 35.7596 30.6139 36.1948 31.0124 36.7327C31.4109 37.2706 31.6755 37.8957 31.7843 38.5562C31.8931 39.2167 31.843 39.8936 31.6381 40.5309C31.4332 41.1682 31.0795 41.7475 30.6061 42.2209C30.2148 42.6123 29.7502 42.9227 29.2389 43.1345C28.7276 43.3464 28.1796 43.4554 27.6262 43.4554C27.0727 43.4554 26.5247 43.3464 26.0134 43.1345C25.5021 42.9227 25.0375 42.6123 24.6462 42.2209C24.2548 41.8296 23.9442 41.365 23.7323 40.8536C23.5205 40.3422 23.4114 39.7942 23.4114 39.2407C23.4114 38.6871 23.5205 38.1391 23.7323 37.6277C23.9442 37.1163 24.2548 36.6517 24.6462 36.2604C25.041 35.8647 25.5106 35.5515 26.0277 35.3392V20.2393C25.5106 20.0282 25.0409 19.7158 24.6462 19.3205C24.0552 18.7287 23.6534 17.9747 23.4918 17.154C23.3302 16.3334 23.4162 15.4833 23.7388 14.7116L17.503 8.4758L1.03777 24.9386C0.708689 25.2676 0.447638 25.6581 0.269533 26.088C0.091427 26.5179 -0.000244141 26.9786 -0.000244141 27.4439C-0.000244141 27.9092 0.091427 28.3699 0.269533 28.7998C0.447638 29.2297 0.708689 29.6202 1.03777 29.9492L25.0526 53.9647C25.7171 54.6284 26.6178 55.0013 27.557 55.0013C28.4962 55.0013 29.397 54.6284 30.0614 53.9647L53.9638 30.0617C54.6273 29.3968 55 28.4958 55 27.5564C55 26.6171 54.6273 25.7161 53.9638 25.0512Z" fill="#FF3A5E"/>
</g>
</svg>
