<svg width="40" height="41" viewBox="0 0 40 41" fill="none" xmlns="http://www.w3.org/2000/svg">
<path d="M39.8677 5.92777L21.0776 39.5275C20.6897 40.2212 19.6929 40.2253 19.2992 39.535L0.136668 5.93089C-0.292395 5.1787 0.350888 4.26745 1.20339 4.41995L20.0136 7.78199C20.1336 7.80343 20.2564 7.80322 20.3764 7.78136L38.7931 4.42464C39.6428 4.2698 40.2891 5.17402 39.8677 5.92777Z" fill="url(#paint0_linear_308_202)"/>
<path d="M28.9746 0.00986067L15.0695 2.73455C14.9584 2.75632 14.8577 2.81439 14.7832 2.89964C14.7087 2.98488 14.6647 3.09247 14.658 3.20549L13.8027 17.6518C13.798 17.731 13.8118 17.8102 13.843 17.8832C13.8743 17.9561 13.9222 18.0208 13.9828 18.072C14.0434 18.1233 14.1151 18.1596 14.1923 18.1783C14.2694 18.197 14.3498 18.1974 14.4272 18.1796L18.2986 17.2861C18.6608 17.2025 18.9881 17.5216 18.9136 17.8858L17.7634 23.5182C17.6861 23.8972 18.0419 24.2213 18.412 24.1088L20.8033 23.3824C21.1739 23.2699 21.5302 23.5949 21.4517 23.9743L19.6239 32.8213C19.5095 33.3748 20.2456 33.6765 20.5525 33.2021L20.7577 32.8852L32.0883 10.2727C32.2781 9.89409 31.9508 9.46237 31.5352 9.54269L27.55 10.3117C27.1756 10.3839 26.857 10.0352 26.9627 9.66894L29.5636 0.652518C29.6694 0.28533 29.3494 -0.0635769 28.9746 0.00986067Z" fill="url(#paint1_linear_308_202)"/>
<defs>
<linearGradient id="paint0_linear_308_202" x1="-33.12" y1="277.176" x2="1993.37" y2="3029.32" gradientUnits="userSpaceOnUse">
<stop stop-color="#FF3A5E"/>
<stop offset="1" stop-color="#FF3A5E"/>
</linearGradient>
<linearGradient id="paint1_linear_308_202" x1="809.397" y1="74.9668" x2="1226.28" y2="2934.72" gradientUnits="userSpaceOnUse">
<stop stop-color="#CA8989"/>
<stop offset="0.354167" stop-color="#38279F"/>
<stop offset="0.9999"/>
<stop offset="1" stop-color="#2F2281"/>
</linearGradient>
</defs>
</svg>
